<svg xmlns="http://www.w3.org/2000/svg" viewBox="0 0 1000 1000" width="1000" height="1000">
  <g stroke="#94a3b8" stroke-width="1.5" opacity="0.35" fill="none" stroke-linecap="round" stroke-linejoin="round">
    <!-- Row 0 -->
    <g transform="translate(50, 50) scale(2)"><path d="M 12 2 L 12 12 M 8 2 L 8 10 C 8 12 16 12 16 10 L 16 2 M 12 12 L 12 22"/></g>
    <g transform="translate(250, 50) scale(2)"><path d="M 12 2 L 22 7 L 22 17 L 12 22 L 2 17 L 2 7 Z M 12 2 L 12 12 L 22 7 M 2 7 L 12 12 L 12 22"/></g>
    <g transform="translate(450, 50) scale(2)"><path d="M 16 4 C 18 6 20 8 16 12 L 8 20 L 4 16 L 12 8 C 16 4 18 6 16 4 Z M 16 4 L 20 2 M 16 4 L 18 0 M 16 4 L 14 1"/></g>
    <g transform="translate(650, 50) scale(2)"><path d="M 4 8 L 16 8 L 16 18 C 16 20 4 20 4 18 Z M 16 10 L 20 10 C 22 10 22 14 20 14 L 16 14 M 8 2 L 8 5 M 12 2 L 12 5"/></g>
    <g transform="translate(850, 50) scale(2)"><path d="M 12 22 L 12 12 C 12 6 16 2 16 2 L 16 12 Z"/></g>

    <!-- Row 1 (staggered) -->
    <g transform="translate(150, 250) scale(2)"><circle cx="12" cy="12" r="10"/><circle cx="12" cy="12" r="7"/></g>
    <g transform="translate(350, 250) scale(2)"><path d="M 2 16 L 16 16 L 16 6 L 2 6 Z M 16 10 L 22 10 L 22 16 M 16 6 L 20 6 L 22 10"/><circle cx="6" cy="16" r="2"/><circle cx="18" cy="16" r="2"/></g>
    <g transform="translate(550, 250) scale(2)"><path d="M 4 14 C 2 14 2 10 4 10 C 4 6 8 4 12 4 C 16 4 20 6 20 10 C 22 10 22 14 20 14 L 18 20 L 6 20 Z"/></g>
    <g transform="translate(750, 250) scale(2)"><rect x="2" y="6" width="20" height="12" rx="2"/><path d="M 6 10 L 6 14 M 10 10 L 10 14 M 12 10 L 12 14 M 16 10 L 16 14 M 18 10 L 18 14"/></g>
    <g transform="translate(950, 250) scale(2)"><path d="M 12 2 C 8 2 8 8 12 12 C 16 8 16 2 12 2 Z M 12 12 L 12 22"/></g>

    <!-- Row 2 -->
    <g transform="translate(50, 450) scale(2)"><path d="M 2 2 L 6 2 L 8 14 L 20 14 L 22 6 L 8 6"/><circle cx="10" cy="18" r="2"/><circle cx="18" cy="18" r="2"/></g>
    <g transform="translate(250, 450) scale(2)"><path d="M 12 4 C 6 4 4 14 4 16 L 20 16 C 20 14 18 4 12 4 Z M 12 2 L 12 4 M 10 16 C 10 18 14 18 14 16"/></g>
    <g transform="translate(450, 450) scale(2)"><path d="M 8 2 L 16 2 L 16 6 L 18 10 L 18 22 L 6 22 L 6 10 L 8 6 Z M 6 12 L 18 12 M 12 12 L 12 22"/></g>
    <g transform="translate(650, 450) scale(2)"><rect x="5" y="4" width="14" height="18" rx="2"/><path d="M 9 4 L 9 2 L 15 2 L 15 4 Z M 8 10 L 16 10 M 8 14 L 16 14"/></g>
    <g transform="translate(850, 450) scale(2)"><path d="M 2 16 L 22 16 M 4 16 L 4 12 C 4 8 8 6 12 6 C 16 6 20 8 20 12 L 20 16"/></g>

    <!-- Row 3 (staggered) -->
    <g transform="translate(150, 650) scale(2)"><rect x="4" y="2" width="16" height="20" rx="2"/><line x1="8" y1="6" x2="16" y2="6"/><line x1="8" y1="10" x2="16" y2="10"/></g>
    <g transform="translate(350, 650) scale(2)"><path d="M 2 6 L 22 6 L 22 20 L 2 20 Z M 12 6 L 12 20 M 8 10 L 16 10"/></g>
    <g transform="translate(550, 650) scale(2)"><rect x="4" y="8" width="16" height="12" rx="1"/><path d="M 2 8 L 22 8 M 6 8 L 6 4 L 18 4 L 18 8"/></g>
    <g transform="translate(750, 650) scale(2)"><rect x="6" y="8" width="12" height="14" rx="2"/><path d="M 8 8 L 8 4 L 16 4 L 16 8 M 6 2 L 18 2 M 10 14 L 10 16 M 14 14 L 14 16"/></g>
    <g transform="translate(950, 650) scale(2)"><path d="M 12 2 C 8 2 8 8 12 12 C 16 8 16 2 12 2 Z M 12 12 L 12 22"/></g>

    <!-- Row 4 (repeating row 0 for seamless y tile) -->
    <g transform="translate(50, 850) scale(2)"><path d="M 12 2 L 12 12 M 8 2 L 8 10 C 8 12 16 12 16 10 L 16 2 M 12 12 L 12 22"/></g>
    <g transform="translate(250, 850) scale(2)"><path d="M 12 2 L 22 7 L 22 17 L 12 22 L 2 17 L 2 7 Z M 12 2 L 12 12 L 22 7 M 2 7 L 12 12 L 12 22"/></g>
    <g transform="translate(450, 850) scale(2)"><path d="M 16 4 C 18 6 20 8 16 12 L 8 20 L 4 16 L 12 8 C 16 4 18 6 16 4 Z M 16 4 L 20 2 M 16 4 L 18 0 M 16 4 L 14 1"/></g>
    <g transform="translate(650, 850) scale(2)"><path d="M 4 8 L 16 8 L 16 18 C 16 20 4 20 4 18 Z M 16 10 L 20 10 C 22 10 22 14 20 14 L 16 14 M 8 2 L 8 5 M 12 2 L 12 5"/></g>
    <g transform="translate(850, 850) scale(2)"><path d="M 12 22 L 12 12 C 12 6 16 2 16 2 L 16 12 Z"/></g>
  </g>
</svg>
